# xmcd
#
# Track frame offsets: 
#        150
#        13203
#        22844
#        41715
#        62497
#        81710
#        96895
#        111780
#        125242
#        143234
#        156650
#
# Disc length: 2337 seconds
#
# Revision: 0
# Processed by: cddbd v1.5.2PL0 Copyright (c) Steve Scherf et al.
# Submitted via: ExactAudioCopy v0.95a4
#
DISCID=9d091f0b
DTITLE=Jimmy "Duck" Holmes - Cypress Grove
DYEAR=2019
DGENRE=Blues
TTITLE0=Hard Times
TTITLE1=Cypress Grove
TTITLE2=Catfish Blues
TTITLE3=Goin' My Way
TTITLE4=Rock Me
TTITLE5=Little Red Rooster
TTITLE6=Devil Got My Woman
TTITLE7=All Night Long
TTITLE8=Gonna Get Old Someday
TTITLE9=Train Train
TTITLE10=Two Women
EXTD=
EXTT0=
EXTT1=
EXTT2=
EXTT3=
EXTT4=
EXTT5=
EXTT6=
EXTT7=
EXTT8=
EXTT9=
EXTT10=
PLAYORDER=
